<?xml version="1.0" standalone="no"?>
<!DOCTYPE svg PUBLIC "-//W3C//DTD SVG 20010904//EN"
 "http://www.w3.org/TR/2001/REC-SVG-20010904/DTD/svg10.dtd">
<svg version="1.0" xmlns="http://www.w3.org/2000/svg"
 width="840.000000pt" height="547.000000pt" viewBox="0 0 840.000000 547.000000"
 preserveAspectRatio="xMidYMid meet">

<g transform="translate(0.000000,547.000000) scale(0.100000,-0.100000)"
fill="#000000" stroke="none">
<path d="M2776 5035 c-21 -14 -40 -24 -43 -21 -12 11 -66 -19 -90 -51 -15 -19
-37 -39 -49 -44 -28 -10 -55 -49 -57 -81 -1 -12 -12 -39 -25 -58 -15 -23 -22
-46 -21 -70 2 -21 -5 -46 -15 -63 -15 -22 -18 -39 -13 -82 4 -37 2 -55 -6 -58
-12 -4 -17 -65 -18 -227 -1 -174 0 -195 15 -215 9 -11 16 -36 16 -55 0 -19 7
-46 15 -60 8 -14 14 -40 15 -58 0 -47 15 -70 56 -87 20 -8 33 -19 29 -25 -4
-7 -12 -7 -25 0 -32 17 -36 10 -9 -13 14 -12 33 -37 42 -56 17 -34 17 -34 -18
-72 -38 -43 -42 -56 -22 -83 9 -13 34 -20 86 -26 40 -4 75 -11 79 -15 4 -4 6
-31 6 -61 -1 -49 1 -55 22 -60 31 -8 31 -34 1 -34 -13 0 -28 -5 -35 -12 -15
-15 -16 -54 -2 -63 22 -14 5 -24 -97 -60 -137 -48 -194 -76 -265 -131 -31 -24
-59 -44 -62 -44 -3 0 -6 11 -6 25 0 25 -25 58 -50 67 -9 3 -15 32 -18 90 -6
111 2 150 31 163 29 13 36 78 12 105 -16 17 -15 21 7 50 l23 32 3 -41 c2 -23
7 -41 13 -41 12 0 12 107 0 115 -5 3 -19 -9 -31 -25 -12 -17 -24 -29 -27 -26
-3 2 3 51 12 108 10 57 18 139 18 184 1 69 -3 89 -28 139 -15 32 -29 72 -31
89 -2 35 -35 66 -71 66 -13 0 -33 9 -45 20 -32 29 -83 26 -113 -6 -14 -15 -25
-32 -25 -38 0 -7 -19 -17 -42 -23 -89 -24 -165 -122 -188 -242 -6 -30 -17 -62
-25 -71 -10 -11 -16 -42 -18 -93 -2 -66 1 -78 21 -99 25 -28 31 -98 9 -117
-24 -19 -50 -88 -43 -114 6 -25 34 -42 88 -52 27 -5 37 -14 46 -39 15 -42 15
-46 -4 -46 -31 0 -11 -44 29 -63 33 -17 51 -47 28 -47 -5 0 -56 23 -113 50
-66 32 -141 59 -208 75 -58 13 -130 31 -160 40 -96 27 -133 -5 -70 -61 l29
-27 -51 -31 c-60 -36 -107 -103 -115 -164 -5 -40 -6 -41 -37 -35 -17 3 -80 31
-141 61 -126 63 -187 82 -267 82 -62 0 -78 -13 -78 -62 0 -36 73 -181 115
-227 36 -40 36 -40 20 -69 -17 -27 -16 -30 9 -80 53 -106 118 -156 197 -154
l45 1 173 -173 174 -174 8 -89 c30 -327 75 -581 136 -767 35 -106 38 -124 30
-163 -9 -39 -14 -44 -51 -55 -22 -7 -57 -29 -79 -49 -32 -31 -38 -43 -35 -71
5 -54 49 -70 174 -65 119 4 161 21 246 97 55 49 58 50 70 30 7 -11 16 -20 21
-20 12 0 121 75 137 95 12 14 11 26 -4 83 -10 37 -19 83 -21 102 -1 19 -14 74
-28 122 -28 94 -54 273 -59 402 l-3 79 42 12 c72 21 129 62 204 145 40 44 79
80 86 80 21 0 53 79 53 133 0 26 3 47 8 47 9 -1 133 -195 138 -218 28 -127 78
-311 93 -340 10 -20 24 -56 30 -80 7 -23 30 -78 52 -122 49 -100 84 -226 99
-369 11 -99 11 -116 -4 -156 -23 -58 -72 -100 -143 -120 -77 -23 -87 -29 -91
-53 -9 -57 122 -71 243 -26 39 15 88 27 110 28 92 3 112 46 76 161 -21 67 -41
238 -41 350 0 94 -14 166 -46 234 -24 51 -29 81 -36 206 0 11 5 56 11 100 10
60 19 89 39 114 81 102 113 151 129 199 19 58 20 59 119 42 119 -21 128 -27
73 -47 -30 -12 -31 -14 -27 -57 3 -26 28 -89 57 -149 l52 -103 -26 -77 c-32
-95 -41 -202 -26 -293 7 -38 32 -141 56 -229 24 -88 53 -206 64 -262 l21 -102
-25 -75 c-19 -58 -23 -80 -15 -100 13 -35 52 -35 79 0 50 63 51 123 6 364 -44
230 -34 373 40 580 15 41 28 76 29 77 0 1 13 4 27 8 l25 6 12 -123 c28 -291
124 -487 276 -561 30 -15 57 -27 60 -27 17 0 0 25 -51 77 -139 143 -193 296
-193 547 0 87 1 93 23 103 17 8 30 7 49 -3 l26 -14 -29 -67 c-32 -75 -38 -146
-15 -179 8 -11 42 -33 75 -48 34 -15 61 -32 61 -39 1 -22 20 -152 26 -171 4
-10 34 -31 70 -47 43 -20 64 -35 64 -47 0 -9 9 -32 20 -49 16 -27 18 -37 8
-58 -9 -20 -8 -28 6 -44 16 -17 16 -26 7 -70 -6 -28 -8 -57 -5 -65 3 -8 -7
-22 -25 -35 -33 -24 -71 -94 -71 -133 0 -31 14 -37 95 -45 145 -13 297 64 386
195 l31 46 -23 48 c-12 27 -47 71 -76 99 -29 28 -53 54 -53 59 0 27 -27 61
-53 68 -17 4 -35 16 -41 26 -9 15 -6 21 14 34 59 40 69 56 59 103 -4 24 -8 47
-9 51 0 4 17 16 38 27 21 11 56 39 77 62 31 35 44 43 69 41 37 -3 44 8 52 80
6 54 8 58 33 58 28 0 121 -80 121 -104 0 -6 -16 -27 -35 -46 -19 -19 -35 -37
-35 -41 0 -11 90 -64 133 -78 l37 -13 0 -84 c0 -96 -9 -88 106 -84 l61 2 6
-34 c3 -19 12 -51 21 -72 14 -34 18 -37 44 -31 28 6 30 3 52 -51 13 -31 41
-79 63 -106 l39 -50 -20 -46 c-11 -26 -23 -66 -27 -89 -4 -24 -10 -43 -15 -43
-18 0 -52 -71 -46 -96 8 -29 57 -54 108 -54 48 0 127 41 175 91 73 76 122 205
86 227 -16 10 -108 162 -123 203 -11 31 -10 42 5 82 10 26 20 47 24 47 3 0 26
-12 50 -25 24 -14 46 -24 48 -21 2 2 -5 21 -16 43 -12 21 -24 60 -27 85 l-7
47 54 -21 c113 -44 136 -54 197 -88 52 -29 62 -39 62 -62 0 -58 41 -236 84
-361 l45 -132 -21 -22 c-14 -15 -19 -29 -14 -47 7 -28 16 -32 98 -41 53 -6 60
-4 83 19 35 35 32 73 -15 164 -40 77 -90 258 -90 330 0 44 21 41 47 -6 12 -20
34 -49 50 -64 47 -45 163 -106 236 -125 l69 -18 30 -60 c46 -90 152 -189 265
-248 72 -37 90 -51 86 -65 -5 -20 15 -40 70 -71 42 -24 78 -27 106 -9 15 9 33
7 87 -10 88 -27 159 -35 219 -26 57 8 85 33 85 74 0 24 -8 35 -42 56 -58 36
-93 70 -129 125 l-29 46 16 69 c9 38 14 86 11 107 -4 32 0 47 26 83 38 55 48
141 23 207 -10 28 -13 52 -8 71 8 28 14 31 92 48 104 22 199 53 263 85 34 17
57 22 77 18 32 -7 70 21 70 51 0 9 11 29 25 46 14 16 25 36 25 43 0 7 16 28
35 46 19 19 35 37 35 42 0 13 61 68 87 78 30 11 29 40 -2 77 -31 37 -32 54 -2
67 43 19 30 85 -17 85 -28 0 -46 -18 -46 -47 0 -22 -3 -23 -62 -20 l-63 2 2
-37 c1 -21 -2 -38 -7 -38 -4 0 -12 -15 -16 -32 -3 -18 -16 -39 -26 -47 -16
-11 -19 -21 -15 -48 7 -39 -19 -73 -55 -73 -12 0 -31 -9 -43 -20 -25 -24 -136
-50 -212 -50 -49 0 -67 10 -43 25 5 3 10 19 10 35 0 15 5 30 12 32 10 4 9 14
-1 46 -13 37 -12 44 2 60 31 34 83 43 182 30 83 -11 94 -10 131 8 47 23 55 54
24 96 l-22 29 22 6 c46 12 106 49 120 75 14 25 13 31 -13 84 l-28 56 41 61
c58 88 61 104 18 141 -19 17 -48 38 -65 47 -30 16 -31 18 -31 92 0 41 -3 80
-6 86 -4 5 -34 13 -66 17 -52 6 -62 10 -73 32 -11 24 -17 26 -59 23 -39 -2
-47 1 -52 17 -9 27 -91 102 -111 102 -19 0 -29 -10 -69 -63 -22 -29 -35 -37
-60 -37 -18 0 -37 -5 -43 -11 -7 -7 -27 -6 -67 4 -55 15 -57 15 -71 -6 -25
-39 -42 -91 -50 -149 -3 -32 -11 -58 -17 -58 -25 0 -138 -65 -138 -80 0 -8 16
-39 35 -69 19 -29 35 -57 35 -63 0 -5 -20 -35 -45 -67 -25 -31 -45 -62 -45
-68 0 -6 25 -28 55 -48 l55 -38 0 -85 0 -84 50 4 c27 1 50 0 50 -4 2 -68 0
-73 -39 -90 -20 -10 -54 -18 -73 -18 -98 0 -237 -75 -252 -135 l-7 -26 -52 37
c-29 21 -86 60 -127 87 -41 27 -85 59 -97 70 l-23 20 25 23 c32 30 35 102 6
128 -19 18 -19 18 7 41 22 20 25 27 16 42 -6 10 -21 19 -33 21 -71 11 -6 132
77 146 20 3 47 9 60 12 18 5 24 1 33 -25 14 -41 27 -39 45 7 13 32 23 41 67
56 48 17 107 63 107 84 0 6 -12 24 -26 41 -29 35 -24 54 28 95 18 14 30 27 27
30 -9 9 -67 -37 -84 -67 -10 -17 -25 -27 -40 -27 -21 0 -22 3 -15 33 4 17 17
56 30 85 12 29 20 55 17 58 -8 8 -37 -51 -58 -116 -10 -33 -23 -56 -33 -58
-13 -3 -15 4 -10 42 8 56 -3 72 -59 87 -23 6 -47 19 -55 30 -7 10 -29 23 -50
29 -20 6 -57 28 -81 49 -51 46 -140 96 -208 116 -85 26 -88 22 -38 -51 35 -50
45 -74 45 -105 0 -74 -51 -74 -200 -1 -64 32 -77 42 -89 74 l-13 37 46 52 c25
28 46 58 46 67 0 9 -21 37 -46 63 l-46 47 23 70 c12 38 20 76 17 84 -6 13 -30
23 -124 47 -36 10 -42 15 -47 44 -7 40 -43 137 -60 161 -13 17 -18 16 -93 -21
-43 -21 -88 -45 -99 -52 -18 -11 -27 -8 -73 23 -72 48 -155 74 -177 56 -22
-18 -55 -83 -75 -150 l-18 -55 -73 -11 c-118 -18 -129 -22 -129 -53 0 -28 21
-107 41 -157 12 -31 11 -34 -39 -90 -29 -32 -52 -63 -52 -69 0 -6 23 -36 50
-68 l51 -56 -16 -49 c-9 -27 -15 -65 -13 -83 l3 -34 67 0 c37 0 71 -4 77 -10
5 -5 11 -30 13 -55 l3 -45 43 2 c43 2 58 -11 23 -20 -11 -3 -22 -17 -26 -35
-6 -29 -9 -31 -73 -38 -85 -9 -137 -27 -184 -64 -32 -26 -40 -29 -62 -19 -13
6 -30 24 -36 40 -17 41 -82 69 -157 69 l-60 0 -6 41 c-7 54 8 86 44 94 16 4
36 16 44 27 12 19 12 24 -1 47 -12 20 -13 35 -7 61 9 35 10 35 77 43 120 13
129 29 96 171 -22 92 -22 97 -5 132 12 25 15 48 11 78 -4 22 -9 63 -12 91 -4
27 -14 60 -23 74 -12 19 -17 59 -22 161 -3 80 -10 144 -18 158 -12 22 -14 22
-30 8 -16 -15 -19 -14 -29 9 -14 30 -28 32 -37 5 -9 -28 -17 -25 -39 13 l-18
32 -27 -32 -27 -32 -26 32 -25 32 -23 -39 -23 -39 -27 33 c-32 39 -55 36 -65
-9 l-6 -30 -28 31 -27 31 -18 -38 -18 -37 -27 26 c-15 14 -30 26 -34 26 -4 0
-10 -18 -13 -40 -4 -22 -9 -40 -12 -40 -3 0 -16 10 -29 22 -20 19 -25 20 -33
8 -5 -8 -10 -23 -10 -34 0 -12 -5 -16 -15 -12 -8 3 -22 9 -30 12 -20 8 -19
-10 4 -87 47 -154 82 -318 88 -410 l6 -98 -26 -12 c-32 -14 -41 -39 -33 -84 7
-36 47 -75 77 -75 21 0 25 -19 34 -157 7 -105 5 -107 -78 -99 -35 3 -52 0 -71
-15 -28 -22 -66 -25 -66 -6 0 27 -83 183 -155 291 -41 62 -75 116 -75 120 0 5
14 25 30 46 46 58 82 147 88 218 4 53 10 68 34 93 27 26 29 34 24 72 -9 53 -8
77 0 157 6 58 10 67 37 85 18 12 34 33 39 52 6 24 15 33 38 38 17 4 32 15 35
26 15 47 -79 95 -167 87 -43 -5 -57 -11 -79 -37 -24 -29 -29 -31 -70 -25 -24
3 -57 15 -72 26 -36 25 -102 48 -139 48 -63 0 -119 -60 -103 -110 6 -20 12
-22 51 -16 50 6 67 -11 46 -45 -17 -26 -15 -71 4 -97 15 -21 14 -22 -14 -22
-16 0 -35 7 -42 15 -29 35 -120 6 -120 -39 0 -23 28 -56 47 -56 5 0 23 -13 40
-29 16 -15 52 -36 79 -46 60 -22 75 -39 67 -77 -4 -19 0 -35 12 -47 16 -18 15
-21 -5 -41 -22 -22 -115 -70 -137 -70 -7 0 -29 33 -49 73 -38 74 -100 169
-164 247 l-37 45 29 29 c34 33 33 56 -5 74 -32 16 -34 29 -7 57 11 11 34 38
52 59 l33 39 0 203 c0 147 -4 207 -13 216 -6 6 -12 32 -12 58 -1 25 -8 97 -16
160 -17 132 -20 245 -6 263 5 7 15 29 21 49 7 20 19 42 27 48 7 7 14 25 14 40
0 15 7 42 16 60 13 25 14 40 7 69 -6 20 -11 49 -12 65 0 16 -8 40 -17 54 -8
13 -22 46 -30 72 -14 47 -43 80 -72 80 -7 0 -25 11 -40 25 -19 18 -38 25 -67
25 -22 0 -62 3 -90 6 -43 5 -55 2 -89 -21z m-689 -881 c9 -25 -11 -35 -61 -32
-46 3 -46 3 -31 26 20 27 82 31 92 6z m99 -49 c9 -14 14 -28 11 -31 -9 -10
-67 26 -67 41 0 24 38 17 56 -10z m-71 -29 c8 -10 19 -15 25 -11 13 8 50 -22
50 -42 0 -7 7 -13 16 -13 18 0 40 -48 49 -110 7 -55 -19 -263 -34 -268 -12 -4
-61 -94 -61 -112 0 -22 17 -8 35 28 15 29 19 33 23 18 2 -10 -5 -31 -17 -47
-27 -36 -27 -37 12 -35 30 1 32 -1 32 -34 0 -32 -3 -35 -30 -36 -46 -2 -51 -4
-36 -13 10 -6 14 -44 15 -150 l3 -141 -51 -15 c-28 -9 -78 -20 -112 -27 -57
-10 -64 -9 -103 12 -52 30 -57 56 -6 34 186 -77 328 139 209 317 -14 20 -48
49 -77 65 -46 25 -61 28 -134 27 -62 -1 -86 2 -98 13 -22 23 -3 51 44 64 33 9
40 15 45 45 18 96 -87 167 -176 121 -31 -16 -36 -11 -14 13 8 9 19 43 25 75
23 124 87 203 191 237 14 5 56 7 94 6 52 -2 71 -7 81 -21z m708 -157 c33 -15
51 -53 32 -69 -11 -9 -18 -8 -32 5 -12 13 -18 14 -21 5 -2 -6 2 -19 11 -27 11
-11 13 -23 6 -45 -10 -37 9 -88 42 -112 39 -27 103 -21 141 13 29 26 33 36 34
83 1 70 3 76 14 58 13 -20 13 -137 0 -145 -18 -11 -2 -23 24 -18 18 4 26 0 31
-17 8 -24 -11 -51 -34 -49 -29 3 -34 -1 -22 -15 9 -10 9 -26 2 -58 -6 -23 -13
-64 -16 -90 -6 -50 -39 -83 -70 -72 -8 4 -25 0 -38 -8 -19 -13 -71 -17 -124
-10 -7 1 -13 13 -13 27 0 18 -7 28 -26 36 -41 15 -19 24 65 25 86 2 174 32
192 66 16 30 3 65 -26 72 -14 4 -61 -1 -103 -10 -93 -19 -277 -23 -309 -5 -31
16 -29 31 10 69 32 31 33 31 87 21 97 -19 140 -22 140 -10 0 6 -14 11 -31 11
-37 0 -72 17 -63 32 4 5 22 16 40 24 29 12 34 19 34 48 0 22 -9 45 -25 64 -14
17 -25 39 -25 51 0 12 -4 21 -10 21 -5 0 -10 -7 -10 -16 0 -11 -8 -14 -32 -12
-25 2 -34 8 -36 26 -3 19 1 22 30 23 18 1 44 5 58 9 36 11 46 11 73 -1z m131
-7 c8 -13 -8 -30 -36 -37 -20 -5 -29 -2 -37 13 -9 17 -8 21 7 25 29 8 61 7 66
-1z m86 -33 c0 -6 -7 -17 -15 -26 -14 -14 -18 -14 -35 2 -29 26 -25 35 15 35
19 0 35 -5 35 -11z m-406 -32 c-15 -9 -34 -2 -34 13 0 13 34 17 42 6 4 -6 1
-14 -8 -19z m331 -2 c60 -29 71 -90 25 -136 -25 -25 -36 -30 -71 -27 -94 7
-112 133 -24 169 28 11 33 11 70 -6z m-216 -31 c45 -37 43 -79 -4 -98 -19 -8
-35 -22 -35 -30 0 -30 -69 -13 -97 23 -22 28 -15 71 16 102 37 37 79 38 120 3z
m-149 6 c0 -5 -4 -10 -9 -10 -6 0 -13 5 -16 10 -3 6 1 10 9 10 9 0 16 -4 16
-10z m-737 -84 c50 -47 44 -108 -12 -121 -16 -3 -36 -14 -46 -24 -21 -24 -48
-17 -80 21 -33 40 -32 78 4 117 38 40 95 43 134 7z m1627 -176 c8 -5 11 -10 5
-10 -5 0 -17 5 -25 10 -8 5 -10 10 -5 10 6 0 17 -5 25 -10z m365 1 c3 -5 2
-12 -3 -15 -5 -3 -9 1 -9 9 0 17 3 19 12 6z m-2069 -12 c3 -6 0 -15 -7 -20
-22 -14 -29 -11 -29 11 0 21 24 27 36 9z m1182 -32 c2 -27 -1 -37 -11 -37 -14
0 -29 64 -18 76 13 12 26 -6 29 -39z m-50 -9 c-2 -36 -7 -44 -25 -46 -13 -2
-23 1 -23 6 0 5 -3 23 -6 40 -5 24 -2 31 12 35 42 11 45 8 42 -35z m92 28 c0
-8 -4 -18 -10 -21 -5 -3 -10 3 -10 14 0 12 5 21 10 21 6 0 10 -6 10 -14z
m-230 -25 c0 -11 3 -26 6 -35 4 -11 0 -16 -14 -16 -12 0 -22 9 -26 23 -10 37
-7 47 14 47 13 0 20 -7 20 -19z m68 -24 c3 -35 1 -38 -20 -35 -19 2 -24 10
-26 41 -3 35 -1 38 20 35 19 -2 24 -10 26 -41z m-936 14 c54 2 85 -3 118 -18
122 -54 165 -198 90 -301 -48 -67 -145 -80 -222 -29 -18 12 -46 28 -62 35 -42
19 -25 26 34 13 167 -36 299 35 234 127 -18 26 -44 27 -208 11 -133 -14 -192
-3 -202 35 -14 56 84 159 128 135 10 -5 50 -9 90 -8z m1573 -56 c29 -28 31
-42 10 -72 -46 -66 -146 -13 -109 59 23 44 63 50 99 13z m311 -3 c-17 -16 -18
-16 -5 5 7 12 15 20 18 17 3 -2 -3 -12 -13 -22z m440 -22 c15 -22 30 -40 35
-40 4 0 13 16 19 35 16 49 25 50 50 10 12 -19 25 -35 29 -35 4 0 15 16 24 36
19 40 32 38 42 -6 8 -34 31 -40 40 -10 9 29 25 24 32 -10 6 -35 19 -39 28 -10
3 11 10 20 14 20 14 0 21 -56 21 -159 0 -74 5 -106 20 -140 30 -64 27 -73 -15
-55 -111 46 -216 -20 -217 -136 0 -27 -4 -50 -9 -50 -5 0 -9 -5 -9 -11 0 -8
13 -9 40 -5 45 7 74 -4 90 -34 15 -28 -27 -70 -70 -70 -16 0 -30 -4 -30 -10 0
-20 68 -10 97 13 24 20 99 49 127 48 10 0 44 -121 45 -159 1 -37 -21 -51 -100
-63 -77 -12 -240 -6 -314 11 -56 13 -129 12 -143 -2 -38 -38 10 -107 92 -132
71 -21 194 -30 241 -17 22 6 43 7 48 2 11 -11 -30 -41 -55 -41 -10 0 -26 -16
-37 -39 -26 -49 -71 -71 -150 -71 -76 0 -132 22 -155 60 -24 42 -39 228 -20
251 22 25 17 29 -29 23 -39 -6 -46 -3 -65 21 -26 33 -28 62 -5 87 20 22 36 23
67 2 15 -9 27 -11 30 -5 4 5 -7 17 -22 27 -28 16 -29 20 -35 116 -4 70 -20
150 -52 273 -25 96 -45 176 -45 178 0 2 10 3 22 3 17 -1 24 6 28 28 l5 28 19
-21 c29 -32 45 -26 52 21 l7 42 27 -32 c14 -18 29 -32 32 -32 4 0 12 16 18 35
14 43 24 44 47 5 9 -16 21 -30 25 -30 4 0 13 20 19 45 6 25 13 45 15 45 2 0
16 -18 30 -40z m-682 15 c-4 -8 -11 -15 -16 -15 -6 0 -5 6 2 15 7 8 14 15 16
15 2 0 1 -7 -2 -15z m123 -7 c18 -15 16 -68 -4 -90 -35 -39 -113 -8 -113 46 0
34 46 69 80 61 13 -4 31 -11 37 -17z m50 -60 c-3 -8 -6 -5 -6 6 -1 11 2 17 5
13 3 -3 4 -12 1 -19z m-13 -42 c-3 -9 -10 -16 -15 -16 -5 0 -4 9 3 20 14 22
21 20 12 -4z m-1677 -50 c9 -53 9 -55 -15 -61 -13 -3 -26 -4 -29 -2 -9 9 -31
106 -25 111 3 3 17 6 32 6 24 0 27 -5 37 -54z m53 38 c10 -11 11 -23 4 -41
-14 -42 -30 -37 -41 12 -9 40 -8 45 7 45 10 0 23 -7 30 -16z m-140 -24 c22
-84 23 -80 -8 -80 -25 0 -30 5 -40 39 -19 61 -16 73 15 69 19 -2 29 -10 33
-28z m-72 -19 c16 -50 15 -51 -8 -51 -13 0 -25 12 -35 36 -20 48 -19 54 8 54
19 0 26 -8 35 -39z m1195 -23 c58 -69 128 -174 169 -255 31 -62 32 -66 14 -77
-10 -6 -34 -21 -53 -33 -18 -13 -37 -23 -41 -23 -4 0 -18 19 -31 43 -46 81
-206 277 -226 277 -4 0 -5 -9 -2 -20 5 -19 0 -20 -139 -20 -80 0 -144 4 -144
9 0 12 99 101 114 102 31 4 95 8 128 9 20 0 39 4 42 9 4 5 21 7 39 4 23 -3 37
0 46 11 22 26 37 19 84 -36z m2062 13 c36 -17 79 -40 97 -52 l31 -22 87 46
c48 26 94 47 103 47 18 0 57 -94 64 -157 4 -33 10 -43 24 -43 35 0 149 -43
149 -56 0 -7 -11 -43 -24 -79 l-24 -65 51 -49 c57 -55 58 -52 -17 -135 -33
-38 -34 -41 -20 -67 18 -36 18 -39 -6 -39 -23 0 -24 -3 -8 -30 22 -34 1 -32
-40 6 l-41 36 30 38 c19 24 33 54 36 81 3 24 13 52 21 62 17 19 8 37 -10 19
-7 -7 -15 -12 -18 -12 -14 0 -30 52 -24 76 7 27 -3 32 -20 8 -18 -24 -63 -3
-71 35 -7 35 -25 32 -25 -3 0 -20 -6 -25 -37 -29 -24 -3 -44 1 -54 9 -19 17
-33 6 -18 -12 8 -10 4 -22 -16 -48 -15 -19 -29 -53 -32 -76 l-6 -40 36 0 c41
0 67 -21 67 -55 0 -30 -35 -55 -77 -55 -17 0 -35 -5 -39 -11 -4 -8 9 -9 47 -6
30 4 85 6 122 6 63 0 72 -3 103 -31 70 -64 34 -91 -146 -107 -109 -10 -152 -8
-337 15 -81 10 -109 -30 -63 -89 45 -57 245 -95 360 -68 31 7 48 7 55 0 13
-13 -19 -38 -58 -46 -16 -3 -31 -13 -35 -22 -12 -32 -44 -49 -84 -43 -23 3
-44 0 -53 -8 -12 -10 -18 -10 -30 0 -8 7 -29 10 -47 8 -20 -3 -38 0 -46 8 -7
8 -22 14 -33 14 -13 0 -19 7 -19 23 0 12 -5 39 -11 61 -10 38 -11 38 -49 32
l-38 -6 -5 43 c-3 28 0 46 9 53 22 18 17 21 -28 20 -35 -1 -44 3 -57 26 -33
57 20 109 79 78 16 -9 20 -8 20 4 0 17 -55 35 -83 28 -33 -8 -50 -48 -44 -97
7 -45 7 -45 -25 -45 l-31 0 6 51 c4 28 13 63 20 79 14 28 13 29 -39 81 -30 29
-54 58 -54 64 0 5 25 36 56 67 54 56 55 58 41 85 -16 32 -47 134 -47 156 0 20
43 36 125 44 66 8 70 10 79 38 20 66 80 185 93 185 7 0 43 -13 78 -29z m-3511
-61 c82 -27 287 -129 346 -170 17 -12 41 -55 68 -117 23 -55 42 -103 42 -106
0 -10 -54 19 -88 46 -15 12 -66 61 -113 110 -83 86 -88 90 -137 95 -44 4 -55
9 -77 38 -15 19 -53 57 -86 84 -33 28 -56 50 -51 50 4 0 48 -13 96 -30z m996
-15 c-13 -14 -30 -25 -37 -25 -18 0 -43 -60 -43 -103 0 -32 -3 -35 -66 -62
-50 -21 -72 -37 -91 -66 -14 -22 -30 -39 -35 -39 -16 0 -88 53 -88 65 0 20 55
89 96 121 55 42 107 72 189 105 89 36 106 37 75 4z m1065 -6 c9 -14 -3 -61
-14 -55 -10 7 -20 53 -13 61 8 8 20 6 27 -6z m-2258 -39 l62 -35 -6 -56 c-3
-30 0 -79 6 -109 6 -29 9 -55 7 -58 -5 -4 -76 11 -110 24 -10 4 -16 1 -16 -9
0 -11 17 -19 59 -28 57 -11 59 -13 66 -46 3 -19 5 -37 2 -39 -2 -2 -41 21 -88
52 -46 30 -114 70 -151 87 -60 28 -68 35 -68 60 0 65 58 148 124 177 23 10 43
18 46 17 3 -1 33 -18 67 -37z m2217 -2 c7 -36 -3 -52 -30 -46 -35 6 -31 78 4
78 14 0 21 -9 26 -32z m-140 -4 c9 -23 7 -44 -4 -44 -11 0 -50 40 -50 52 0 15
48 8 54 -8z m66 4 c0 -7 3 -23 6 -35 5 -20 2 -23 -20 -23 -14 0 -26 6 -26 13
0 6 -3 22 -6 35 -5 19 -2 22 20 22 14 0 26 -6 26 -12z m146 -26 c-17 -16 -18
-16 -5 5 7 12 15 20 18 17 3 -2 -3 -12 -13 -22z m-1456 -37 c0 -16 -7 -25 -24
-29 -13 -3 -34 -17 -47 -31 -13 -13 -32 -25 -43 -25 -20 0 -90 56 -78 63 4 2
40 12 80 22 41 10 76 24 79 32 8 20 33 -4 33 -32z m668 34 c34 -12 102 -88
102 -114 0 -9 -8 -30 -17 -46 -14 -23 -25 -29 -50 -29 -20 0 -41 -8 -53 -20
-22 -22 -24 -29 -10 -50 7 -11 4 -16 -13 -20 -31 -8 -46 -54 -24 -78 9 -10 17
-33 17 -51 0 -27 5 -35 30 -44 17 -6 30 -15 30 -20 0 -4 -19 -25 -42 -47 l-42
-38 -63 23 c-88 32 -135 65 -183 130 -46 62 -58 70 -95 61 -20 -5 -25 -13 -25
-40 0 -18 10 -48 23 -67 35 -52 131 -124 210 -157 l72 -30 -3 -45 c-6 -76 20
-102 127 -127 52 -12 53 -13 47 -43 -8 -39 -56 -122 -100 -172 l-35 -40 -1 48
c0 83 -18 50 -25 -48 -4 -52 -10 -95 -14 -95 -4 0 -15 23 -26 51 -11 28 -23
53 -27 55 -19 12 -13 -19 18 -94 23 -54 32 -88 26 -98 -7 -12 -10 -10 -20 11
-11 24 -32 35 -32 16 0 -5 11 -32 25 -59 14 -28 25 -55 25 -61 0 -13 -112 111
-215 239 -110 136 -238 339 -330 524 -47 95 -85 175 -85 179 0 4 -18 46 -41
94 -22 47 -44 96 -49 107 -4 12 -17 45 -29 74 -18 46 -19 52 -5 52 17 0 85
-64 117 -110 l18 -25 -5 33 c-3 17 -3 32 0 32 10 0 90 -43 119 -65 47 -35 88
-53 213 -97 148 -51 183 -71 262 -152 35 -36 72 -66 82 -66 27 0 22 13 -12 33
-16 10 -30 22 -30 28 0 5 14 3 30 -6 25 -13 30 -13 30 -2 0 8 -26 26 -58 40
-33 14 -71 36 -86 50 -15 14 -42 32 -61 41 -32 16 -33 18 -32 69 1 37 -7 69
-26 111 -29 62 -36 133 -15 154 15 15 312 17 356 1z m-1388 -43 c0 -20 9 -28
53 -44 51 -20 52 -20 83 -1 30 18 64 25 64 14 0 -3 -16 -28 -35 -57 -19 -28
-37 -61 -40 -74 -3 -13 -7 -35 -10 -48 -5 -24 -29 -36 -73 -36 -44 0 -98 167
-78 244 8 33 36 35 36 2z m3034 -35 c39 -26 55 -57 56 -108 0 -52 -36 -98 -87
-112 -39 -11 -53 -7 -53 13 0 21 -35 46 -74 53 -34 5 -36 8 -36 45 0 49 22 93
58 112 38 21 101 20 136 -3z m-2784 -16 c0 -21 -17 -27 -24 -9 -10 25 -7 34 9
28 8 -4 15 -12 15 -19z m480 9 c0 -10 -34 -64 -40 -64 -3 1 -16 7 -29 14 l-23
13 27 21 c26 20 65 30 65 16z m-496 -64 c6 0 17 9 24 21 13 20 16 18 85 -53
76 -78 147 -132 197 -150 17 -5 30 -15 30 -21 0 -7 43 -100 96 -207 l96 -195
-6 -62 c-10 -97 -15 -102 -47 -50 -32 52 -174 169 -277 228 -40 23 -109 54
-155 70 -66 23 -94 39 -147 88 -36 32 -84 74 -107 92 -23 19 -41 39 -39 44 1
6 33 20 70 33 115 39 308 28 406 -23 33 -17 40 -18 40 -6 0 13 -89 48 -154 60
-33 6 -95 11 -138 11 -43 0 -78 3 -78 8 0 27 26 92 48 121 25 34 26 34 35 13
6 -12 15 -22 21 -22z m771 30 c3 -5 -1 -10 -10 -10 -9 0 -13 5 -10 10 3 6 8
10 10 10 2 0 7 -4 10 -10z m-17 -29 c45 -23 62 -55 62 -116 0 -25 -1 -45 -2
-45 -11 0 -195 63 -201 69 -13 13 12 54 51 83 45 33 43 33 90 9z m592 -80 l25
-46 -30 -51 c-24 -41 -104 -113 -146 -132 -4 -2 -7 16 -7 40 0 24 -2 62 -4 86
-3 37 -1 42 18 42 33 0 59 35 47 62 -8 18 -6 32 9 62 l20 40 22 -29 c11 -16
32 -49 46 -74z m-120 4 c10 -12 10 -18 0 -31 -19 -21 -74 -15 -78 10 -7 34 54
50 78 21z m-1750 -83 c33 -64 32 -135 -3 -195 -37 -62 -54 -75 -74 -54 -12 12
-13 19 -5 29 29 35 38 202 16 288 l-7 25 25 -23 c13 -12 35 -44 48 -70z m300
6 c0 -5 -6 -8 -14 -8 -15 0 -26 21 -26 48 0 13 5 11 20 -8 11 -14 20 -28 20
-32z m3998 32 c66 -41 78 -131 24 -191 -28 -31 -87 -51 -121 -42 -16 4 -18 12
-14 43 7 47 -21 80 -67 80 -34 0 -36 7 -16 55 19 44 69 75 121 75 23 0 54 -9
73 -20z m-2614 -39 c11 -17 -6 -41 -29 -41 -30 0 -41 16 -25 35 14 17 46 20
54 6z m224 -11 c-7 -10 -14 -17 -17 -15 -4 4 18 35 25 35 2 0 -1 -9 -8 -20z
m-213 -80 c0 -18 -6 -26 -22 -28 -20 -3 -23 1 -23 28 0 27 3 31 23 28 16 -2
22 -10 22 -28z m606 -27 c13 -16 12 -17 -3 -4 -17 13 -22 21 -14 21 2 0 10 -8
17 -17z m3659 -20 c78 -70 75 -101 -10 -98 -34 1 -60 9 -80 24 -30 21 -30 22
-13 49 21 33 46 61 55 61 5 1 26 -15 48 -36z m-267 -74 c33 -9 37 -14 37 -41
0 -38 43 -115 67 -120 10 -2 34 0 53 5 57 15 142 15 186 -1 75 -25 89 -16 109
72 6 28 7 29 57 23 28 -4 53 -9 57 -13 3 -3 6 -41 7 -85 l0 -80 41 -20 c22
-11 51 -31 64 -45 l23 -25 -19 -36 c-11 -20 -32 -52 -47 -71 -16 -19 -28 -39
-28 -44 0 -5 11 -31 25 -58 14 -27 25 -56 25 -64 0 -21 -60 -64 -98 -72 -49
-10 -59 -29 -34 -64 30 -40 28 -57 -10 -76 -29 -15 -44 -16 -143 -4 -86 10
-131 21 -204 51 -52 22 -107 39 -122 39 -37 0 -69 -41 -69 -90 0 -45 37 -83
98 -100 57 -15 74 -13 67 9 -8 26 12 65 44 84 41 24 58 6 20 -22 -26 -19 -30
-28 -26 -55 2 -17 7 -38 11 -47 6 -13 -1 -20 -29 -29 -77 -25 -205 11 -236 67
-11 21 -13 41 -8 78 12 85 11 99 -13 110 -45 21 -41 95 6 95 14 0 28 -4 31
-10 9 -15 25 -12 19 4 -3 7 -16 18 -30 25 -71 32 -113 -83 -47 -127 24 -15 24
-16 7 -23 -11 -4 -31 -8 -46 -8 l-28 -1 0 79 0 78 -56 37 -56 37 26 32 c14 18
37 48 51 68 l26 37 -40 62 c-23 35 -41 66 -41 70 0 4 33 22 74 40 l74 33 6 59
c9 76 39 148 63 148 10 0 35 -5 56 -11z m-3808 -60 c15 -33 24 -63 22 -66 -3
-3 -35 5 -71 17 -60 20 -66 24 -66 49 0 21 8 31 33 44 17 8 37 16 43 16 6 1
24 -26 39 -60z m1041 51 c10 0 14 -14 14 -50 0 -51 -7 -58 -44 -44 -12 4 -16
20 -16 56 0 42 3 49 16 44 9 -3 22 -6 30 -6z m-69 -47 c-4 -17 -4 -17 -12 0
-4 9 -4 25 0 35 8 16 8 16 12 0 3 -10 3 -26 0 -35z m2930 41 c-3 -3 -12 -4
-19 -1 -8 3 -5 6 6 6 11 1 17 -2 13 -5z m-2759 -18 c2 -2 0 -25 -3 -50 -7 -42
-10 -46 -36 -46 -36 0 -40 8 -32 65 6 46 7 47 36 41 17 -3 32 -8 35 -10z
m2817 4 c3 -5 -1 -10 -9 -10 -9 0 -16 5 -16 10 0 6 4 10 9 10 6 0 13 -4 16
-10z m235 -1 c-19 -8 -21 -12 -11 -18 11 -7 8 -12 -10 -21 -13 -7 -27 -18 -31
-24 -4 -6 -8 3 -8 20 0 33 25 53 65 53 17 0 16 -2 -5 -10z m-2973 -7 c8 -5 9
-19 0 -55 -9 -42 -13 -47 -39 -47 -25 0 -28 3 -28 33 0 54 10 77 34 77 11 0
26 -4 33 -8z m-765 -67 c54 -55 138 -207 118 -213 -29 -10 -90 -76 -101 -110
-18 -56 -26 -58 -34 -7 -3 26 -20 87 -36 135 -29 89 -47 214 -36 245 9 22 33
8 89 -50z m854 23 c-12 -39 -31 -56 -64 -57 -11 -1 -12 9 -7 42 10 56 11 57
50 57 l33 0 -12 -42z m1288 -43 c25 -36 40 -70 43 -99 5 -39 2 -46 -21 -61
-26 -17 -39 -17 -123 1 -28 6 -33 4 -33 -13 0 -33 67 -101 111 -113 50 -14 41
-30 -16 -30 -24 0 -47 -5 -50 -11 -11 -16 35 -58 77 -71 29 -8 43 -20 55 -46
9 -18 33 -45 54 -59 l37 -25 -24 -35 c-13 -20 -24 -42 -24 -49 0 -8 -2 -14 -5
-14 -3 0 -52 38 -109 84 -105 85 -183 139 -255 175 -31 16 -38 25 -34 41 8 31
-5 68 -27 75 -21 7 -28 25 -9 25 21 0 78 32 83 47 4 9 -1 27 -10 41 -14 21
-14 31 -5 63 10 33 16 39 49 45 85 14 108 24 141 63 40 46 41 46 95 -34z
m1311 65 c-3 -5 -14 -10 -23 -9 -14 0 -13 2 3 9 27 11 27 11 20 0z m155 3 c-8
-3 -18 -11 -22 -17 -5 -7 -8 -4 -8 7 0 11 7 17 23 16 15 0 17 -2 7 -6z m-4200
-13 c0 -5 -4 -10 -10 -10 -5 0 -10 5 -10 10 0 6 5 10 10 10 6 0 10 -4 10 -10z
m4234 -5 c3 -8 1 -15 -4 -15 -6 0 -10 7 -10 15 0 8 2 15 4 15 2 0 6 -7 10 -15z
m-102 -17 c-3 -13 -13 -18 -36 -17 -31 2 -31 2 -3 6 18 3 27 9 24 17 -3 7 1
13 8 13 7 0 10 -8 7 -19z m-62 3 c-14 -4 -24 -13 -22 -20 1 -7 -2 -10 -8 -6
-6 3 -8 10 -5 15 3 4 0 10 -7 12 -7 3 5 5 27 5 32 1 35 -1 15 -6z m146 -19 c1
-7 0 -8 -3 -2 -2 5 -12 10 -21 10 -15 0 -15 -2 -2 -11 12 -9 12 -10 1 -7 -26
7 -26 30 0 26 12 -1 24 -9 25 -16z m-842 -23 c34 -16 39 -35 21 -73 -35 -74
-175 -83 -175 -12 0 31 27 66 64 82 39 16 58 17 90 3z m951 1 c13 -6 15 -9 5
-9 -8 0 -22 4 -30 9 -18 12 -2 12 25 0z m-2257 -42 c-3 -36 -15 -42 -31 -17
-13 21 -2 49 18 49 12 0 15 -8 13 -32z m79 19 c0 -1 -1 -23 -4 -50 -5 -43 -8
-47 -27 -41 -11 4 -24 12 -28 18 -10 14 -10 71 -1 80 6 6 53 0 60 -7z m-2184
-29 c26 -10 37 -28 17 -28 -22 0 -80 30 -80 41 0 7 7 8 18 4 9 -4 29 -12 45
-17z m2282 -25 c-8 -59 -13 -65 -53 -57 -31 6 -32 8 -32 55 l0 49 46 0 46 0
-7 -47z m105 31 c0 -9 -5 -34 -12 -55 -10 -37 -14 -39 -50 -39 -33 0 -38 3
-34 18 3 9 8 34 12 55 6 35 8 37 45 37 29 0 39 -4 39 -16z m90 9 c0 -22 -35
-93 -46 -93 -7 0 -20 -3 -29 -7 -15 -5 -16 -1 -10 28 15 68 23 79 55 79 16 0
30 -3 30 -7z m626 -89 c32 -31 26 -68 -14 -101 -53 -45 -131 -38 -154 12 -10
22 -9 32 6 60 33 60 116 75 162 29z m-2004 -24 c12 -11 17 -20 10 -20 -6 0
-14 5 -17 11 -4 6 -13 8 -21 5 -8 -3 -11 0 -7 10 7 18 10 18 35 -6z m-88 -14
c-3 -9 -10 -13 -15 -10 -5 3 -3 11 4 19 15 16 19 13 11 -9z m2278 -11 c20 -44
-24 -71 -73 -45 -24 13 -25 46 -1 59 31 18 62 13 74 -14z m-1882 5 c0 -5 -2
-10 -4 -10 -3 0 -8 5 -11 10 -3 6 -1 10 4 10 6 0 11 -4 11 -10z m-531 -52
c-10 -29 -18 -64 -19 -78 0 -16 -12 -36 -30 -52 -21 -18 -30 -35 -30 -56 0
-44 -21 -57 -65 -41 -19 7 -35 16 -35 20 0 3 -11 23 -25 43 -24 35 -24 37 -9
76 28 70 129 137 210 139 21 1 21 1 3 -51z m498 17 c-15 -16 -19 -13 -11 9 3
9 10 13 15 10 5 -3 3 -11 -4 -19z m683 10 c0 -8 -9 -15 -20 -15 -20 0 -26 11
-13 23 12 13 33 7 33 -8z m-1150 -52 c-11 -17 -11 -17 -6 0 3 10 6 24 7 30 0
9 2 9 5 0 3 -7 0 -20 -6 -30z m490 33 c0 -3 -4 -8 -10 -11 -5 -3 -10 -1 -10 4
0 6 5 11 10 11 6 0 10 -2 10 -4z m-453 -28 c-3 -8 -6 -5 -6 6 -1 11 2 17 5 13
3 -3 4 -12 1 -19z m30 -10 c-3 -7 -5 -2 -5 12 0 14 2 19 5 13 2 -7 2 -19 0
-25z m516 15 c-7 -2 -19 -2 -25 0 -7 3 -2 5 12 5 14 0 19 -2 13 -5z m567 4 c0
-17 -34 -67 -43 -64 -14 4 -21 32 -13 53 4 12 56 22 56 11z m-1681 -64 c70
-79 129 -200 138 -280 6 -62 6 -63 -19 -63 -23 0 -26 4 -31 58 -7 80 -66 197
-140 278 l-59 64 30 0 c24 0 41 -12 81 -57z m1047 46 c-15 -9 -16 -13 -5 -21
11 -8 10 -9 -3 -5 -12 4 -20 -2 -27 -21 l-11 -27 6 29 c5 29 29 55 49 55 6 0
2 -4 -9 -10z m-1160 -18 c67 -41 172 -219 181 -307 7 -64 -4 -69 -63 -26 -53
39 -86 84 -139 193 -67 138 -59 189 21 140z m1715 -13 c8 -18 23 -35 34 -37
11 -2 24 -9 30 -16 14 -17 57 -26 74 -15 9 5 19 3 28 -6 17 -17 47 -18 74 -4
15 8 23 7 35 -5 21 -21 60 -19 83 4 12 12 23 16 32 10 8 -4 28 -8 45 -7 48 2
242 -122 369 -235 l40 -36 -35 -1 c-19 0 -55 -9 -79 -20 -24 -11 -48 -20 -55
-20 -6 0 -55 29 -109 65 -192 128 -299 171 -460 182 -97 7 -91 1 -70 66 9 29
-14 19 -27 -13 -11 -26 -17 -30 -52 -30 -74 0 -128 -51 -128 -123 0 -13 -9
-32 -19 -41 -18 -16 -21 -16 -60 3 -46 24 -57 49 -48 113 11 86 104 171 203
187 77 13 80 13 95 -21z m133 16 c20 -8 21 -48 1 -64 -17 -14 -51 -5 -59 16
-3 9 -1 24 4 35 11 20 27 23 54 13z m326 -13 c14 -26 3 -50 -26 -57 -42 -11
-72 34 -42 64 18 18 56 14 68 -7z m-1123 -13 c-3 -8 -6 -5 -6 6 -1 11 2 17 5
13 3 -3 4 -12 1 -19z m1021 -25 c7 -46 -69 -56 -84 -11 -5 16 -1 27 16 40 20
16 25 17 44 5 12 -8 22 -23 24 -34z m-119 19 c13 -24 -4 -52 -33 -52 -26 0
-40 23 -31 51 8 24 51 25 64 1z m-1212 -14 c-3 -8 -6 -5 -6 6 -1 11 2 17 5 13
3 -3 4 -12 1 -19z m626 -4 l64 -26 -18 -49 c-11 -27 -19 -60 -19 -74 0 -14 -3
-25 -7 -25 -5 0 -45 17 -91 37 -81 37 -83 39 -78 68 5 25 64 95 81 95 2 0 33
-12 68 -26z m1807 22 c0 -15 -14 -35 -21 -30 -15 9 -10 34 6 34 8 0 15 -2 15
-4z m-2027 -31 c-3 -9 -8 -14 -10 -11 -3 3 -2 9 2 15 9 16 15 13 8 -4z m57
-20 c0 -5 -5 -3 -10 5 -5 8 -10 20 -10 25 0 6 5 3 10 -5 5 -8 10 -19 10 -25z
m-130 -5 c0 -16 -4 -30 -8 -30 -5 0 -7 14 -4 30 2 17 6 30 8 30 2 0 4 -13 4
-30z m-30 -12 c0 -5 -8 -8 -17 -7 -10 0 -13 3 -6 5 7 3 9 13 6 22 -4 15 -3 15
6 2 6 -8 11 -18 11 -22z m-672 -11 c28 -23 52 -91 52 -150 0 -70 -12 -97 -44
-97 -23 0 -24 2 -19 64 6 71 -5 116 -43 172 l-25 37 32 -7 c18 -3 39 -12 47
-19z m222 -5 c0 -9 -9 -23 -20 -30 -17 -10 -20 -10 -20 6 0 19 18 42 32 42 4
0 8 -8 8 -18z m597 -4 c-3 -8 -6 -5 -6 6 -1 11 2 17 5 13 3 -3 4 -12 1 -19z
m1623 12 c0 -5 -4 -10 -9 -10 -6 0 -13 5 -16 10 -3 6 1 10 9 10 9 0 16 -4 16
-10z m-2057 -17 c-7 -2 -21 -2 -30 0 -10 3 -4 5 12 5 17 0 24 -2 18 -5z
m-1436 -75 c32 -40 99 -121 150 -180 64 -73 91 -112 87 -123 -4 -9 5 -37 19
-63 38 -71 54 -152 61 -312 3 -80 12 -183 21 -229 8 -47 14 -85 12 -85 -1 -1
-15 -10 -32 -22 -66 -46 -163 -84 -215 -84 -25 0 -24 0 6 19 40 24 69 62 90
117 15 40 16 56 5 152 -16 142 -53 279 -100 377 -22 44 -48 105 -59 135 -11
30 -27 75 -36 99 -10 24 -28 89 -42 143 -14 55 -28 106 -31 114 -11 29 8 12
64 -58z m1468 62 c-11 -5 -27 -9 -35 -9 -9 0 -8 4 5 9 11 5 27 9 35 9 9 0 8
-4 -5 -9z m383 -3 c6 0 12 -4 12 -9 0 -13 -25 -9 -46 8 -19 15 -19 16 1 9 11
-4 26 -8 33 -8z m-439 -1 c-2 -2 -17 -6 -34 -10 -22 -5 -26 -4 -15 4 14 9 59
15 49 6z m-119 -20 c0 -2 -7 -7 -16 -10 -8 -3 -12 -2 -9 4 6 10 25 14 25 6z
m528 -21 c12 -11 10 -21 -8 -61 l-21 -49 -25 28 c-27 31 -29 43 -14 82 8 21
14 25 33 20 12 -4 28 -13 35 -20z m544 9 c-13 -9 -31 -13 -42 -9 -31 10 -13
25 28 25 36 0 36 0 14 -16z m-1118 -29 c-4 -8 -1 -15 5 -15 6 0 11 5 11 11 0
5 5 7 10 4 13 -8 3 -25 -13 -25 -21 0 -40 17 -33 29 11 16 26 13 20 -4z m1064
7 c21 -14 0 -53 -36 -68 -37 -15 -40 -9 -21 45 11 31 31 39 57 23z m-1048 -75
c46 -41 50 -49 50 -122 0 -40 -3 -75 -6 -78 -4 -4 -30 14 -57 39 -28 25 -68
54 -89 65 l-38 19 0 75 0 75 57 -26 c32 -14 69 -35 83 -47z m57 57 c-3 -3 -12
-4 -19 -1 -8 3 -5 6 6 6 11 1 17 -2 13 -5z m70 -10 c-3 -3 -12 -4 -19 -1 -8 3
-5 6 6 6 11 1 17 -2 13 -5z m592 -34 c48 -26 59 -38 79 -83 12 -28 22 -55 22
-59 0 -4 -18 -11 -40 -14 -23 -4 -40 -12 -40 -20 0 -7 16 -33 35 -58 48 -63
44 -67 -15 -12 -44 41 -52 45 -75 36 -15 -6 -42 -10 -61 -10 -31 0 -37 4 -50
35 -14 34 -13 36 21 86 19 28 39 68 45 90 6 21 13 39 16 39 4 0 32 -14 63 -30z
m76 8 c20 -9 35 -28 21 -28 -15 0 -66 24 -66 31 0 12 14 11 45 -3z m896 -113
c43 -29 84 -55 91 -58 10 -3 11 -8 1 -23 -36 -55 -46 -83 -46 -129 1 -100 6
-140 21 -163 8 -12 13 -24 11 -27 -3 -2 -48 13 -102 33 -95 35 -98 37 -90 61
9 30 8 73 -2 255 l-8 128 23 -12 c13 -7 58 -36 101 -65z m431 -20 c0 -5 -5
-11 -11 -13 -6 -2 -11 4 -11 13 0 9 5 15 11 13 6 -2 11 -8 11 -13z m203 -4 c7
-12 -12 -24 -25 -16 -11 7 -4 25 10 25 5 0 11 -4 15 -9z m1492 -88 c2 -6 -3
-13 -12 -16 -10 -5 -15 0 -15 14 0 21 21 22 27 2z m-90 -53 c6 -31 18 -39 27
-17 3 8 9 7 20 -7 12 -15 16 -16 20 -5 15 48 17 52 27 42 15 -15 0 -61 -27
-82 -13 -11 -31 -35 -39 -54 -28 -68 -106 -101 -113 -48 -5 35 6 68 30 91 16
14 22 31 21 58 -1 20 1 40 4 44 10 17 24 6 30 -22z m-3120 14 c-3 -3 -12 -4
-19 -1 -8 3 -5 6 6 6 11 1 17 -2 13 -5z m2435 -62 c-8 -22 -26 4 -28 39 l-2
31 18 -29 c9 -15 15 -34 12 -41z m-1137 49 c6 -11 -25 -81 -37 -81 -11 0 -10
48 2 71 12 21 25 25 35 10z m-1278 -23 c-3 -8 -6 -5 -6 6 -1 11 2 17 5 13 3
-3 4 -12 1 -19z m2333 2 c0 -5 -2 -10 -4 -10 -3 0 -8 5 -11 10 -3 6 -1 10 4
10 6 0 11 -4 11 -10z m-87 -15 c42 -18 47 -18 47 -6 0 5 -8 12 -17 14 -14 4
-13 5 4 6 29 1 39 -17 17 -33 -9 -7 -14 -18 -10 -24 4 -7 3 -12 -2 -12 -6 0
-20 -15 -32 -32 -20 -30 -21 -25 -4 17 3 8 1 15 -5 15 -6 0 -11 -4 -11 -9 0
-5 -11 -4 -24 2 -18 9 -22 15 -14 24 5 7 7 17 3 23 -5 7 -12 5 -21 -7 -13 -17
-13 -17 -14 6 0 18 4 22 20 18 11 -3 20 -1 20 4 0 12 1 12 43 -6z m-103 -30
c-10 -12 -10 -15 4 -15 10 0 15 -7 13 -20 -4 -28 -17 -37 -17 -12 0 27 -11 28
-27 3 -9 -14 -9 -21 -1 -23 13 -5 19 -48 6 -48 -4 0 -8 7 -8 15 0 9 -9 25 -20
37 l-20 22 21 23 c12 12 26 20 30 17 5 -3 9 0 9 5 0 6 5 11 11 11 8 0 8 -5 -1
-15z m350 -20 c0 -8 -7 -15 -15 -15 -9 0 -12 6 -9 15 4 8 10 15 15 15 5 0 9
-7 9 -15z m-125 -5 c-3 -6 5 -10 19 -10 13 0 26 5 28 12 2 6 10 9 18 6 8 -2
-2 -12 -25 -22 -30 -15 -39 -16 -46 -5 -7 12 -3 29 7 29 3 0 2 -4 -1 -10z
m170 -10 c-19 -9 -19 -9 3 -16 18 -5 20 -9 10 -15 -17 -11 -31 -11 -24 0 3 5
-2 12 -11 15 -15 6 -15 8 -3 16 8 6 22 9 30 9 10 0 8 -3 -5 -9z m-759 -37 c29
-21 54 -42 54 -46 0 -9 -56 -1 -107 15 -35 10 -36 11 -27 46 8 30 17 28 80
-15z m878 22 c7 -19 -26 -37 -56 -30 -29 6 -63 -18 -55 -40 4 -8 2 -15 -2 -15
-8 0 -25 31 -19 34 2 1 16 10 31 20 16 10 35 15 43 12 8 -3 14 -1 14 4 0 5 7
7 15 4 11 -5 13 -2 9 10 -3 9 -2 16 4 16 5 0 12 -7 16 -15z m334 1 c-7 -8 -15
-12 -17 -11 -5 6 10 25 20 25 5 0 4 -6 -3 -14z m-660 -28 c-3 -7 -12 -14 -21
-16 -12 -2 -15 1 -11 12 7 19 38 22 32 4z m-678 -24 c0 -2 -9 -4 -21 -4 -11 0
-18 4 -14 10 5 8 35 3 35 -6z m440 6 c0 -5 -5 -10 -11 -10 -5 0 -7 5 -4 10 3
6 8 10 11 10 2 0 4 -4 4 -10z m65 0 c3 -5 1 -10 -4 -10 -6 0 -11 5 -11 10 0 6
2 10 4 10 3 0 8 -4 11 -10z m785 -9 c0 -27 -17 -30 -85 -15 -59 14 -49 14 49
1 10 -1 21 3 23 9 2 7 -7 10 -24 8 -28 -4 -28 -4 -3 5 37 13 40 13 40 -8z
m-1200 -23 c90 -21 98 -27 118 -82 11 -28 23 -66 27 -85 7 -31 5 -33 -11 -25
-11 4 -40 8 -66 9 -54 0 -59 4 -82 67 -10 26 -27 56 -39 65 -27 22 -33 78 -8
68 9 -4 36 -11 61 -17z m1233 -11 c-7 -11 -23 2 -23 19 0 12 2 12 14 2 8 -7
12 -16 9 -21z m-218 13 c-3 -5 -10 -10 -16 -10 -5 0 -9 5 -9 10 0 6 7 10 16
10 8 0 12 -4 9 -10z m78 -7 c-7 -2 -21 -2 -30 0 -10 3 -4 5 12 5 17 0 24 -2
18 -5z m-661 -55 c-9 -9 -12 -8 -12 5 0 20 -21 22 -38 5 -7 -7 -12 -8 -12 -2
0 6 10 16 23 21 28 14 59 -9 39 -29z m373 32 c3 -5 2 -10 -4 -10 -5 0 -13 5
-16 10 -3 6 -2 10 4 10 5 0 13 -4 16 -10z m55 -20 c0 -23 -4 -30 -20 -30 -11
0 -20 5 -20 10 0 6 7 10 15 10 8 0 15 9 15 20 0 11 2 20 5 20 3 0 5 -13 5 -30z
m353 15 c1 -5 -7 -11 -18 -12 -11 -2 -14 0 -6 3 11 5 11 8 0 16 -11 7 -10 8 4
6 10 -2 19 -7 20 -13z m-1012 -43 c-6 -2 -11 -11 -11 -20 0 -14 -2 -14 -9 -3
-5 7 -15 10 -22 7 -8 -4 -6 -1 4 7 20 16 7 34 -15 21 -7 -4 -10 -4 -6 1 4 4 3
14 -4 22 -6 7 8 3 31 -9 24 -12 38 -24 32 -26z m1063 32 c3 -8 2 -12 -4 -9 -6
3 -10 10 -10 16 0 14 7 11 14 -7z m51 -4 c-3 -5 -13 -10 -21 -10 -8 0 -14 5
-14 10 0 6 9 10 21 10 11 0 17 -4 14 -10z m-959 -27 c-4 -11 -2 -13 9 -9 8 3
15 1 15 -3 0 -13 -28 -22 -35 -11 -4 6 -3 15 0 20 3 6 1 10 -5 10 -6 0 -8 5
-5 10 9 15 27 0 21 -17z m854 7 c-8 -5 -19 -10 -25 -10 -5 0 -3 5 5 10 8 5 20
10 25 10 6 0 3 -5 -5 -10z m-1249 -40 c11 -22 18 -77 23 -164 3 -72 9 -142 13
-155 6 -23 5 -24 -32 -17 -55 11 -145 59 -182 98 l-33 34 49 52 c26 28 65 83
85 122 21 39 43 69 49 67 7 -2 19 -19 28 -37z m1142 6 c4 -10 1 -13 -8 -9 -8
3 -12 9 -9 14 7 12 11 11 17 -5z m47 4 c-20 -13 -33 -13 -25 0 3 6 14 10 23
10 15 0 15 -2 2 -10z m-880 -10 c8 -5 11 -10 5 -10 -5 0 -17 5 -25 10 -8 5
-10 10 -5 10 6 0 17 -5 25 -10z m780 1 c-28 -16 -60 -22 -60 -12 0 9 24 17 60
19 13 1 13 0 0 -7z m-90 -5 c0 -3 -4 -8 -10 -11 -5 -3 -10 -1 -10 4 0 6 5 11
10 11 6 0 10 -2 10 -4z m105 -16 c-11 -5 -27 -9 -35 -9 -9 0 -8 4 5 9 11 5 27
9 35 9 9 0 8 -4 -5 -9z m-827 -33 l27 3 -28 -9 c-16 -5 -35 -15 -43 -22 -10
-8 -14 -8 -14 0 0 6 5 11 11 11 7 0 9 11 5 28 -5 24 -4 25 5 6 8 -15 18 -20
37 -17z m-61 1 c-3 -8 -6 -5 -6 6 -1 11 2 17 5 13 3 -3 4 -12 1 -19z m188 14
l-20 -5 20 -8 c13 -6 8 -7 -15 -2 -19 3 -43 6 -52 5 -10 0 -18 3 -18 7 0 5 24
8 53 8 28 0 43 -3 32 -5z m622 2 c-3 -3 -12 -4 -19 -1 -8 3 -5 6 6 6 11 1 17
-2 13 -5z m-3499 -49 c-3 -3 -9 2 -12 12 -6 14 -5 15 5 6 7 -7 10 -15 7 -18z
m3322 21 c0 -2 -7 -7 -16 -10 -8 -3 -12 -2 -9 4 6 10 25 14 25 6z m-605 -52
c-12 -24 -15 -25 -15 -8 0 11 5 25 12 32 18 18 20 8 3 -24z m-92 9 c3 -5 -10
-8 -29 -9 -19 0 -34 3 -34 8 0 10 57 11 63 1z m687 -14 c0 -5 -4 -9 -8 -9 -5
0 -9 7 -9 15 0 8 4 12 9 9 4 -3 8 -9 8 -15z m-2823 -23 c15 -32 15 -37 0 -60
-43 -65 -177 -27 -177 51 0 21 5 23 48 24 26 0 56 4 67 9 35 15 45 11 62 -24z
m2063 13 c0 -4 8 -5 18 -2 16 7 16 6 0 -11 -17 -16 -22 -41 -19 -91 1 -20 1
-20 -8 0 -4 11 -6 39 -3 62 3 28 1 43 -7 43 -6 0 -11 4 -11 10 0 5 7 7 15 4 8
-4 15 -10 15 -15z m-23 -41 c-3 -7 -5 -2 -5 12 0 14 2 19 5 13 2 -7 2 -19 0
-25z m783 12 c0 -11 -2 -20 -4 -20 -2 0 -6 9 -9 20 -3 11 -1 20 4 20 5 0 9 -9
9 -20z m-2752 -12 c47 -47 -51 -147 -145 -148 -34 0 -83 18 -83 31 0 32 13 39
60 33 62 -8 104 13 121 61 14 37 27 43 47 23z m2099 -20 c-3 -8 -6 -5 -6 6 -1
11 2 17 5 13 3 -3 4 -12 1 -19z m23 -49 c-7 -31 -8 -29 -8 21 -1 39 2 49 8 34
4 -11 5 -36 0 -55z m-1210 15 c50 -39 62 -45 75 -34 12 10 15 10 15 -2 0 -8
23 -52 50 -98 52 -86 54 -100 24 -147 l-14 -22 -57 35 c-31 19 -62 34 -68 34
-19 0 -93 84 -119 135 -42 86 -43 101 -4 125 18 11 34 20 35 20 2 0 30 -21 63
-46z m1827 14 c-3 -8 -6 -5 -6 6 -1 11 2 17 5 13 3 -3 4 -12 1 -19z m30 -8
c-7 -17 -13 -26 -15 -21 -3 10 15 51 22 51 3 0 -1 -14 -7 -30z m-532 -105
c-11 -30 -14 -33 -9 -10 3 17 9 50 12 75 6 44 7 44 10 10 1 -19 -4 -53 -13
-75z m-40 86 c3 -5 1 -12 -5 -16 -5 -3 -10 1 -10 9 0 18 6 21 15 7z m592 -38
c-3 -10 -5 -2 -5 17 0 19 2 27 5 18 2 -10 2 -26 0 -35z m-780 15 c-3 -8 -6 -5
-6 6 -1 11 2 17 5 13 3 -3 4 -12 1 -19z m750 -33 c-4 -8 -12 -15 -19 -14 -10
0 -10 2 0 6 6 2 12 12 12 21 0 8 3 13 6 9 4 -3 4 -13 1 -22z m-758 -29 c-5 -6
-9 -19 -9 -30 0 -10 -2 -17 -5 -14 -3 3 -3 25 1 49 6 33 9 39 14 24 4 -11 4
-24 -1 -29z m121 34 c6 10 7 3 3 -25 -10 -63 -30 -73 -29 -15 1 26 4 43 9 37
5 -9 10 -8 17 3z m90 -27 c0 -32 -5 -28 -14 10 -4 19 -3 26 4 22 5 -3 10 -18
10 -32z m-60 0 c0 -20 -3 -24 -11 -16 -7 7 -9 19 -6 27 10 24 17 19 17 -11z
m617 -15 c-3 -8 -6 -5 -6 6 -1 11 2 17 5 13 3 -3 4 -12 1 -19z m-2752 -43 c0
-25 -4 -30 -24 -30 -32 0 -49 28 -31 50 7 9 23 15 34 13 16 -2 21 -10 21 -33z
m2768 20 c-3 -9 -8 -14 -10 -11 -3 3 -2 9 2 15 9 16 15 13 8 -4z m-2635 -30
c10 -22 7 -32 -20 -76 -75 -123 -249 -198 -400 -173 -33 6 -38 10 -38 33 l0
26 108 0 c100 0 110 2 161 30 42 23 68 48 110 107 31 43 59 77 62 78 3 0 11
-11 17 -25z m2007 15 c3 -5 -1 -10 -9 -10 -9 0 -16 5 -16 10 0 6 4 10 9 10 6
0 13 -4 16 -10z m590 -20 c3 -5 1 -18 -5 -27 -10 -16 -10 -15 -5 4 5 17 1 22
-17 26 -23 4 -23 4 -1 6 12 0 25 -3 28 -9z m-740 -10 c3 -5 1 -10 -4 -10 -6 0
-11 5 -11 10 0 6 2 10 4 10 3 0 8 -4 11 -10z m242 -22 c-3 -8 -6 -5 -6 6 -1
11 2 17 5 13 3 -3 4 -12 1 -19z m-70 -10 c-3 -8 -6 -5 -6 6 -1 11 2 17 5 13 3
-3 4 -12 1 -19z m480 -20 c-3 -8 -6 -5 -6 6 -1 11 2 17 5 13 3 -3 4 -12 1 -19z
m-469 -23 c-3 -3 -9 2 -12 12 -6 14 -5 15 5 6 7 -7 10 -15 7 -18z m-123 -21
c11 -20 29 -40 40 -45 19 -9 19 -9 -2 -5 -29 5 -37 -8 -22 -36 11 -21 11 -22
-5 -9 -12 10 -15 22 -11 39 4 15 -1 36 -14 58 -11 19 -17 34 -13 34 4 0 16
-16 27 -36z m25 1 c0 -5 -5 -3 -10 5 -5 8 -10 20 -10 25 0 6 5 3 10 -5 5 -8
10 -19 10 -25z m188 3 c2 -25 0 -29 -8 -18 -12 18 -13 50 -2 50 4 0 9 -15 10
-32z m32 -3 c0 -8 -2 -15 -4 -15 -2 0 -6 7 -10 15 -3 8 -1 15 4 15 6 0 10 -7
10 -15z m-90 -4 c0 -5 3 -18 6 -28 5 -15 4 -16 -6 -3 -9 12 -13 12 -17 2 -4
-10 -8 -10 -19 -1 -8 6 -14 16 -14 21 0 6 7 5 15 -2 12 -10 15 -10 15 4 0 9 5
16 10 16 6 0 10 -4 10 -9z m-168 -45 c-3 -5 -9 -1 -13 10 -12 31 -10 39 5 19
8 -11 12 -24 8 -29z m268 -22 c-11 -28 -12 -28 -26 -10 -19 27 -18 45 2 20 14
-17 15 -17 10 -1 -3 11 -2 16 4 12 6 -3 10 -1 10 6 0 7 2 10 5 7 3 -3 1 -18
-5 -34z m-1379 2 c47 -20 66 -43 53 -64 -22 -34 -39 -36 -93 -11 -43 19 -51
27 -47 44 3 11 6 28 6 39 0 20 18 19 81 -8z m1736 -18 c-3 -8 -6 -5 -6 6 -1
11 2 17 5 13 3 -3 4 -12 1 -19z m-510 -30 c-3 -8 -6 -5 -6 6 -1 11 2 17 5 13
3 -3 4 -12 1 -19z m94 -1 c-10 -9 -11 -8 -5 6 3 10 9 15 12 12 3 -3 0 -11 -7
-18z m84 -7 c7 0 17 -18 23 -40 5 -22 8 -40 7 -40 -7 0 -55 93 -54 104 1 6 3
3 6 -6 2 -10 10 -18 18 -18z m343 -5 c7 -14 11 -38 11 -53 -1 -20 -2 -22 -6
-7 -14 69 -14 69 -24 54 -7 -11 -9 -9 -9 9 0 30 14 28 28 -3z m-545 -12 c-3
-7 -9 -13 -13 -13 -4 0 -10 6 -13 13 -3 7 3 13 13 13 10 0 16 -6 13 -13z m132
-3 c-5 -16 -3 -19 12 -13 15 5 16 3 6 -7 -7 -8 -19 -15 -27 -16 -11 -2 -12 4
-4 27 11 32 23 40 13 9z m125 4 c0 -8 -4 -12 -10 -9 -5 3 -10 10 -10 16 0 5 5
9 10 9 6 0 10 -7 10 -16z m-226 -10 c3 -8 2 -12 -4 -9 -6 3 -10 10 -10 16 0
14 7 11 14 -7z m132 -39 c-3 -8 2 -19 12 -24 9 -6 13 -10 7 -11 -20 0 -35 17
-29 33 3 9 8 17 11 17 3 0 3 -7 -1 -15z m135 -42 c25 -10 29 -16 27 -45 -3
-29 1 -35 30 -47 17 -8 32 -22 31 -30 0 -11 -2 -12 -6 -3 -2 6 -10 12 -17 12
-21 0 -66 48 -60 63 5 15 -22 44 -33 34 -8 -8 -33 12 -33 26 0 6 7 2 15 -9 14
-18 14 -17 11 11 -2 17 -1 23 1 15 2 -9 17 -21 34 -27z m-204 20 c-4 -3 -1
-13 6 -21 10 -13 9 -14 -12 -3 -19 10 -21 15 -10 22 17 10 25 12 16 2z m450
-60 c-3 -10 -5 -2 -5 17 0 19 2 27 5 18 2 -10 2 -26 0 -35z m-357 27 c0 -5 -4
-10 -9 -10 -6 0 -13 5 -16 10 -3 6 1 10 9 10 9 0 16 -4 16 -10z m41 -43 c-4
-4 -31 2 -59 14 -29 12 -51 23 -49 25 4 4 75 -20 83 -29 16 -16 26 -5 11 11
-10 10 -17 22 -17 26 0 5 9 -2 19 -15 11 -13 16 -27 12 -32z m296 11 c-3 -7
-5 -2 -5 12 0 14 2 19 5 13 2 -7 2 -19 0 -25z m91 7 c-3 -3 -9 2 -12 12 -6 14
-5 15 5 6 7 -7 10 -15 7 -18z m-49 -64 c-6 -2 -19 -12 -27 -22 -9 -11 -20 -19
-25 -19 -5 0 -1 7 7 16 9 8 16 20 16 25 0 5 7 9 16 9 8 0 13 4 9 10 -3 5 -12
7 -20 3 -8 -3 -15 0 -15 6 0 6 7 11 15 11 8 0 15 6 16 13 0 6 5 -1 10 -18 6
-20 5 -31 -2 -34z m-160 23 c13 -12 -8 -10 -29 2 l-25 15 25 -7 c14 -3 27 -8
29 -10z m315 -53 c-2 -3 -10 1 -16 7 -15 15 -32 16 -23 2 3 -5 2 -10 -4 -10
-5 0 -13 5 -16 10 -3 6 -1 10 5 10 6 0 8 5 5 10 -4 6 -11 8 -16 5 -5 -4 -9 -2
-9 3 0 21 15 19 46 -6 18 -14 31 -28 28 -31z m-207 27 c-3 -8 -6 -5 -6 6 -1
11 2 17 5 13 3 -3 4 -12 1 -19z m-131 -70 c6 -9 -31 -29 -39 -22 -3 3 -3 12 0
20 6 16 -13 19 -22 4 -11 -18 -23 -11 -18 10 6 22 -7 26 -25 8 -9 -9 -12 -7
-12 10 0 16 -4 20 -17 15 -13 -4 -15 -3 -8 5 21 21 51 18 93 -12 24 -17 46
-34 48 -38z m264 52 c0 -5 -4 -10 -9 -10 -6 0 -13 5 -16 10 -3 6 1 10 9 10 9
0 16 -4 16 -10z m-214 -12 c4 -7 3 -8 -4 -4 -7 4 -12 2 -12 -3 0 -6 -5 -11
-11 -11 -8 0 -8 5 1 15 15 18 17 18 26 3z m49 -18 c13 -6 15 -9 5 -9 -8 0 -22
4 -30 9 -18 12 -2 12 25 0z m68 -7 c-7 -2 -19 -2 -25 0 -7 3 -2 5 12 5 14 0
19 -2 13 -5z m24 -25 c-16 -10 -64 -10 -70 0 -3 4 15 7 38 7 24 0 39 -3 32 -7z"/>
<path d="M1973 3737 c-31 -29 -36 -40 -37 -80 -3 -148 212 -168 240 -22 13 71
-46 135 -125 135 -33 0 -49 -7 -78 -33z m144 -7 c85 -51 25 -191 -76 -176 -66
10 -102 68 -81 132 20 60 96 82 157 44z"/>
<path d="M2092 3643 c4 -21 33 -25 33 -3 0 8 -8 16 -18 18 -14 3 -18 -1 -15
-15z"/>
<path d="M2200 3450 c0 -11 5 -20 10 -20 6 0 10 9 10 20 0 11 -4 20 -10 20 -5
0 -10 -9 -10 -20z"/>
<path d="M3060 3640 c0 -11 5 -20 10 -20 6 0 10 9 10 20 0 11 -4 20 -10 20 -5
0 -10 -9 -10 -20z"/>
<path d="M2947 3784 c-14 -15 -6 -34 14 -34 14 0 19 5 17 17 -3 18 -20 27 -31
17z"/>
<path d="M2667 3764 c-9 -10 2 -24 19 -24 8 0 14 7 14 15 0 15 -21 21 -33 9z"/>
<path d="M1790 3670 c0 -11 7 -20 15 -20 8 0 15 9 15 20 0 11 -7 20 -15 20 -8
0 -15 -9 -15 -20z"/>
<path d="M3420 3405 c0 -8 7 -15 15 -15 8 0 15 7 15 15 0 8 -7 15 -15 15 -8 0
-15 -7 -15 -15z"/>
<path d="M4118 3052 c-65 -29 -106 -108 -88 -173 41 -147 262 -141 294 8 19
87 -43 164 -137 170 -29 1 -59 -1 -69 -5z m123 -27 c37 -19 69 -70 69 -109 0
-38 -35 -93 -70 -111 -101 -52 -220 40 -189 145 23 77 116 113 190 75z"/>
<path d="M4123 2934 c-8 -21 13 -42 28 -27 13 13 5 43 -11 43 -6 0 -13 -7 -17
-16z"/>
<path d="M3969 2725 c-3 -2 -3 -20 -1 -40 5 -39 21 -48 23 -12 1 16 2 18 6 5
2 -10 11 -18 18 -18 11 0 12 6 6 22 -8 22 -44 52 -52 43z"/>
<path d="M3640 3385 c0 -8 7 -15 15 -15 8 0 15 7 15 15 0 8 -7 15 -15 15 -8 0
-15 -7 -15 -15z"/>
<path d="M5103 2910 c8 -29 -57 -57 -90 -39 -29 15 -44 2 -19 -16 16 -12 17
-17 5 -45 -12 -27 -18 -31 -41 -26 -34 7 -37 -11 -4 -23 17 -7 25 -20 30 -49
7 -49 52 -97 104 -113 81 -24 178 37 189 119 6 42 -12 112 -29 112 -6 0 -7 15
-3 40 7 41 -8 58 -18 20 -4 -17 -11 -19 -39 -14 -45 9 -68 22 -68 39 0 8 -5
15 -11 15 -6 0 -9 -9 -6 -20z m84 -57 c102 -48 95 -188 -11 -228 -43 -17 -48
-17 -91 -1 -78 30 -108 114 -65 184 35 57 104 76 167 45z"/>
<path d="M5055 2750 c-4 -7 -3 -16 3 -22 14 -14 45 -2 40 15 -6 16 -34 21 -43
7z"/>
<path d="M4880 2530 c0 -5 4 -10 9 -10 4 0 6 -11 3 -25 -2 -15 0 -25 7 -25 6
0 11 4 11 10 0 5 7 7 15 4 19 -8 19 6 -1 34 -15 22 -44 30 -44 12z"/>
<path d="M4497 2943 c-14 -13 -6 -33 13 -33 13 0 20 7 20 20 0 19 -20 27 -33
13z"/>
<path d="M5452 2733 c5 -26 38 -29 38 -4 0 15 -6 21 -21 21 -14 0 -19 -5 -17
-17z"/>
<path d="M7050 2260 c0 -18 -5 -30 -13 -30 -7 0 -29 -11 -49 -25 -34 -23 -38
-24 -53 -9 -9 9 -18 14 -21 12 -6 -7 6 -38 16 -38 4 0 6 -28 3 -62 -4 -55 -2
-68 19 -98 84 -124 283 -67 283 80 0 34 -6 57 -22 79 -14 17 -19 32 -13 36 6
3 10 13 10 21 0 12 -4 12 -21 4 -18 -10 -50 -8 -101 6 -11 3 -18 15 -18 30 0
13 -4 24 -10 24 -5 0 -10 -13 -10 -30z m72 -50 c69 -20 111 -97 88 -165 -14
-42 -79 -85 -129 -85 -138 0 -182 184 -58 241 49 22 51 22 99 9z"/>
<path d="M7042 2093 c2 -10 10 -18 18 -18 8 0 16 8 18 18 2 12 -3 17 -18 17
-15 0 -20 -5 -18 -17z"/>
<path d="M7330 2198 c0 -17 -7 -29 -20 -33 -34 -11 -61 -69 -58 -122 l3 -47
45 -9 c56 -11 74 -27 65 -57 -6 -20 -12 -22 -51 -17 -31 3 -44 1 -41 -7 10
-29 168 1 211 40 43 41 60 110 36 154 -7 13 -6 21 5 30 23 19 18 33 -10 26
-35 -9 -66 12 -59 41 7 26 -13 32 -22 8 -9 -21 -73 -20 -90 3 -12 15 -13 15
-14 -10z m147 -72 c24 -26 33 -45 33 -71 0 -51 -26 -94 -65 -111 -45 -18 -55
-18 -55 4 0 28 -30 50 -78 58 -40 6 -42 8 -42 41 0 113 131 163 207 79z"/>
<path d="M7387 2064 c-14 -15 -6 -34 14 -34 14 0 19 5 17 17 -3 18 -20 27 -31
17z"/>
<path d="M6840 1914 c0 -29 3 -34 13 -25 8 6 17 8 20 4 4 -3 7 3 7 15 0 12 -9
26 -20 32 -18 10 -20 8 -20 -26z"/>
<path d="M7280 2530 c0 -5 5 -10 10 -10 6 0 10 5 10 10 0 6 -4 10 -10 10 -5 0
-10 -4 -10 -10z"/>
<path d="M6285 2431 c-6 -11 25 -81 36 -81 18 0 18 21 2 54 -17 36 -27 44 -38
27z"/>
<path d="M5950 2308 c0 -26 25 -78 37 -78 16 0 16 14 1 57 -11 31 -38 46 -38
21z"/>
<path d="M4455 1791 c-20 -4 -26 -9 -17 -14 15 -10 72 1 72 14 0 10 -10 10
-55 0z"/>
<path d="M6830 1640 c0 -5 5 -10 11 -10 5 0 7 5 4 10 -3 6 -8 10 -11 10 -2 0
-4 -4 -4 -10z"/>
<path d="M6647 1610 c4 -15 11 -19 24 -15 12 4 19 2 19 -6 0 -10 3 -10 12 -1
15 15 3 27 -34 36 -23 5 -25 3 -21 -14z"/>
<path d="M6542 1588 c-14 -14 -16 -28 -3 -28 9 0 24 30 18 36 -2 2 -9 -2 -15
-8z"/>
<path d="M6250 1336 c0 -9 7 -12 20 -9 31 8 34 23 6 23 -16 0 -26 -6 -26 -14z"/>
</g>
</svg>
